<svg viewBox="0 0 32 32" fill="none" xmlns="http://www.w3.org/2000/svg">
  <defs>
    <linearGradient id="g" x1="0%" y1="0%" x2="100%" y2="100%">
      <stop offset="0%" stop-color="#34d399"/>
      <stop offset="50%" stop-color="#60a5fa"/>
      <stop offset="100%" stop-color="#a78bfa"/>
    </linearGradient>
  </defs>
  <rect width="32" height="32" rx="8" fill="#0f1117"/>
  <path d="M14 24V18M18 24V18M11 18V12C11 11 11.5 10 13 10C14.5 10 15 11 15 12V8C15 7 15.5 6 17 6C18.5 6 19 7 19 8V12C19 11 19.5 10 21 10C22.5 10 23 11 23 12V18C23 22 20 24 17 24H15C12 24 11 22 11 18Z" fill="url(#g)" opacity="0.9"/>
  <path d="M8 8L9 6L10 8L9 10Z" fill="url(#g)" opacity="0.6"/>
  <path d="M24 6L25 4L26 6L25 8Z" fill="url(#g)" opacity="0.5"/>
  <path d="M6 14L7 12L8 14L7 16Z" fill="url(#g)" opacity="0.4"/>
</svg>
